<?xml version="1.0" encoding="UTF-8"?>
<svg id="Layer_1" xmlns="http://www.w3.org/2000/svg" version="1.1" viewBox="0 0 761.2 659.7">
  <!-- Generator: Adobe Illustrator 29.2.1, SVG Export Plug-In . SVG Version: 2.1.0 Build 116)  -->
  <defs>
    <style>
      .st0 {
        fill: #00adee;
      }

      .st1 {
        fill: #fff;
      }

      .st2 {
        fill: #fff100;
      }

      .st3 {
        fill: #eb008b;
      }
    </style>
  </defs>
  <path class="st1" d="M112.1,206.6v-93.1h36.7c7.1,0,13.1,1.3,18,4,5,2.7,8.8,6.4,11.4,11.1,2.6,4.7,4,10.2,4,16.4s-1.3,11.6-4,16.4c-2.7,4.7-6.5,8.4-11.6,11-5,2.6-11.1,4-18.3,4h-23.4v-15.8h20.2c3.8,0,6.9-.7,9.4-2,2.5-1.3,4.3-3.2,5.5-5.5,1.2-2.4,1.9-5.1,1.9-8.1s-.6-5.8-1.9-8.1c-1.2-2.3-3.1-4.1-5.5-5.4-2.5-1.3-5.6-2-9.5-2h-13.3v77h-19.7Z"/>
  <path class="st1" d="M186.9,206.6v-69.8h19.4v69.8h-19.4ZM196.6,127.8c-2.9,0-5.3-1-7.4-2.9-2-1.9-3-4.3-3-7s1-5,3-6.9c2.1-1.9,4.5-2.9,7.4-2.9s5.3,1,7.4,2.9c2.1,1.9,3.1,4.2,3.1,6.9s-1,5-3.1,7c-2,1.9-4.5,2.9-7.4,2.9Z"/>
  <path class="st1" d="M230.3,136.8l12.8,24.4,13.1-24.4h19.9l-20.2,34.9,20.8,34.9h-19.8l-13.8-24.1-13.5,24.1h-20l20.7-34.9-20-34.9h20Z"/>
  <path class="st1" d="M309.2,207.9c-7.2,0-13.4-1.5-18.5-4.4-5.2-2.9-9.1-7.1-11.9-12.5-2.8-5.4-4.2-11.8-4.2-19.1s1.4-13.5,4.2-18.9c2.8-5.4,6.7-9.7,11.8-12.7,5.1-3,11.1-4.5,17.9-4.5s8.9.7,12.9,2.2c4,1.5,7.5,3.7,10.5,6.6,3,2.9,5.3,6.6,7,11.1,1.7,4.4,2.5,9.6,2.5,15.5v5.3h-59v-12h40.7c0-2.8-.6-5.3-1.8-7.4-1.2-2.2-2.9-3.8-5-5-2.1-1.2-4.6-1.9-7.4-1.9s-5.5.7-7.8,2c-2.2,1.3-4,3.1-5.3,5.4-1.3,2.2-1.9,4.7-2,7.5v11.4c0,3.5.6,6.4,1.9,9,1.3,2.5,3.1,4.5,5.5,5.8,2.4,1.4,5.2,2,8.4,2s4.1-.3,5.9-.9c1.8-.6,3.3-1.5,4.6-2.7,1.3-1.2,2.2-2.7,2.9-4.5l17.9,1.2c-.9,4.3-2.8,8.1-5.6,11.3-2.8,3.2-6.4,5.7-10.8,7.5-4.4,1.8-9.5,2.6-15.2,2.6Z"/>
  <path class="st1" d="M365.6,113.5v93.1h-19.4v-93.1h19.4Z"/>
  <path class="st1" d="M431.5,156.7l-17.7,1.1c-.3-1.5-1-2.9-2-4.1-1-1.2-2.3-2.2-4-3-1.6-.8-3.5-1.1-5.8-1.1s-5.5.6-7.6,1.9c-2.1,1.2-3.1,2.9-3.1,5s.7,3.1,2,4.2c1.3,1.2,3.6,2.1,6.9,2.8l12.6,2.5c6.8,1.4,11.8,3.6,15.2,6.7,3.3,3.1,5,7.2,5,12.2s-1.3,8.6-4,12c-2.7,3.5-6.3,6.2-11,8.1-4.6,1.9-10,2.9-16,2.9-9.2,0-16.6-1.9-22.1-5.8-5.5-3.9-8.7-9.2-9.6-15.8l19-1c.6,2.8,2,5,4.2,6.5,2.2,1.5,5,2.2,8.5,2.2s6.1-.7,8.2-2c2.1-1.3,3.2-3,3.2-5.1,0-1.8-.8-3.2-2.2-4.3-1.5-1.2-3.7-2-6.7-2.6l-12.1-2.4c-6.8-1.4-11.9-3.7-15.2-7.1-3.3-3.4-5-7.7-5-12.9s1.2-8.3,3.6-11.6c2.5-3.2,5.9-5.7,10.3-7.5,4.5-1.8,9.7-2.6,15.6-2.6,8.8,0,15.8,1.9,20.8,5.6,5.1,3.7,8.1,8.8,8.9,15.2Z"/>
  <path class="st1" d="M128.9,229.5l22.5,70.7h.9l22.5-70.7h21.8l-32.1,93.1h-25.4l-32.1-93.1h21.9Z"/>
  <path class="st1" d="M223.7,323.9c-7.2,0-13.4-1.5-18.5-4.4-5.2-2.9-9.1-7.1-11.9-12.5-2.8-5.4-4.2-11.8-4.2-19.1s1.4-13.5,4.2-18.9c2.8-5.4,6.7-9.7,11.8-12.7,5.1-3,11.1-4.5,17.9-4.5s8.9.7,12.9,2.2c4,1.5,7.5,3.7,10.5,6.6,3,2.9,5.3,6.6,7,11.1,1.7,4.4,2.5,9.6,2.5,15.5v5.3h-59v-12h40.7c0-2.8-.6-5.3-1.8-7.4-1.2-2.2-2.9-3.8-5-5-2.1-1.2-4.6-1.9-7.4-1.9s-5.5.7-7.8,2c-2.2,1.3-4,3.1-5.3,5.4-1.3,2.2-1.9,4.7-2,7.5v11.4c0,3.5.6,6.4,1.9,9,1.3,2.5,3.1,4.5,5.5,5.8,2.4,1.4,5.2,2,8.4,2s4.1-.3,5.9-.9,3.3-1.5,4.6-2.7,2.2-2.7,2.9-4.5l17.9,1.2c-.9,4.3-2.8,8.1-5.6,11.3-2.8,3.2-6.4,5.7-10.8,7.5-4.4,1.8-9.5,2.6-15.2,2.6Z"/>
  <path class="st1" d="M292.2,323.9c-7.2,0-13.3-1.5-18.5-4.5-5.1-3.1-9.1-7.3-11.8-12.7-2.7-5.4-4.1-11.7-4.1-18.7s1.4-13.4,4.1-18.8c2.8-5.4,6.7-9.7,11.9-12.7,5.1-3.1,11.2-4.6,18.3-4.6s11.4,1.1,16,3.3c4.6,2.2,8.2,5.3,10.9,9.3,2.7,4,4.1,8.7,4.4,14.1h-18.3c-.5-3.5-1.9-6.3-4.1-8.4-2.2-2.2-5-3.2-8.6-3.2s-5.6.8-7.9,2.5c-2.2,1.6-3.9,4-5.2,7-1.2,3.1-1.9,6.8-1.9,11.2s.6,8.2,1.8,11.4c1.2,3.1,3,5.5,5.2,7.1,2.2,1.6,4.9,2.5,7.9,2.5s4.2-.5,6-1.4c1.8-.9,3.3-2.2,4.4-4,1.2-1.8,2-3.9,2.3-6.3h18.3c-.3,5.3-1.8,10-4.4,14.1-2.6,4-6.1,7.2-10.7,9.5-4.5,2.3-9.9,3.4-16.1,3.4Z"/>
  <path class="st1" d="M365.3,252.8v14.5h-42v-14.5h42ZM332.8,236h19.4v65.1c0,1.8.3,3.2.8,4.2.5,1,1.3,1.7,2.3,2,1,.4,2.2.6,3.5.6s1.8,0,2.7-.2c.9-.2,1.6-.3,2.1-.4l3,14.4c-1,.3-2.3.7-4.1,1-1.8.4-3.9.7-6.4.8-4.7.2-8.8-.4-12.3-1.9-3.5-1.4-6.2-3.6-8.1-6.6-1.9-3-2.9-6.8-2.9-11.4v-67.6Z"/>
  <path class="st1" d="M401,323.9c-7.1,0-13.2-1.5-18.3-4.5-5.1-3-9.1-7.2-11.9-12.6-2.8-5.4-4.2-11.7-4.2-18.9s1.4-13.5,4.2-18.9c2.8-5.4,6.7-9.6,11.9-12.6,5.2-3,11.3-4.5,18.3-4.5s13.2,1.5,18.3,4.5c5.2,3,9.1,7.2,11.9,12.6,2.8,5.4,4.2,11.7,4.2,18.9s-1.4,13.4-4.2,18.9c-2.8,5.4-6.8,9.6-11.9,12.6-5.1,3-11.2,4.5-18.3,4.5ZM401.1,308.9c3.2,0,5.9-.9,8-2.7,2.2-1.8,3.8-4.4,4.9-7.5,1.1-3.2,1.7-6.8,1.7-10.9s-.6-7.7-1.7-10.9c-1.1-3.2-2.7-5.7-4.9-7.5-2.2-1.8-4.8-2.8-8-2.8s-6,.9-8.2,2.8c-2.2,1.8-3.8,4.4-5,7.5-1.1,3.2-1.6,6.8-1.6,10.9s.5,7.7,1.6,10.9c1.1,3.2,2.8,5.7,5,7.5,2.2,1.8,4.9,2.7,8.2,2.7Z"/>
  <path class="st1" d="M440.3,322.6v-69.8h18.8v12.2h.7c1.3-4.3,3.4-7.6,6.4-9.8,3-2.2,6.5-3.4,10.4-3.4s2,0,3.1.2c1.1.1,2.1.3,3,.5v17.2c-.9-.3-2.2-.5-3.8-.7-1.6-.2-3.1-.3-4.4-.3-2.8,0-5.4.6-7.6,1.9-2.2,1.2-4,2.9-5.3,5.1-1.3,2.2-1.9,4.7-1.9,7.5v39.5h-19.4Z"/>
  <path class="st1" d="M543.1,272.7l-17.7,1.1c-.3-1.5-1-2.9-2-4.1-1-1.2-2.3-2.2-4-3-1.6-.8-3.5-1.1-5.8-1.1s-5.5.6-7.6,1.9c-2.1,1.2-3.1,2.9-3.1,5s.7,3.1,2,4.2c1.3,1.2,3.6,2.1,6.9,2.8l12.6,2.5c6.8,1.4,11.8,3.6,15.2,6.7,3.3,3.1,5,7.2,5,12.2s-1.3,8.6-4,12c-2.7,3.5-6.3,6.2-11,8.1-4.6,1.9-10,2.9-16,2.9-9.2,0-16.6-1.9-22.1-5.8-5.5-3.9-8.7-9.2-9.6-15.8l19-1c.6,2.8,2,5,4.2,6.5,2.2,1.5,5,2.2,8.5,2.2s6.1-.7,8.2-2c2.1-1.3,3.2-3,3.2-5.1,0-1.8-.8-3.2-2.2-4.3-1.5-1.2-3.7-2-6.7-2.6l-12.1-2.4c-6.8-1.4-11.9-3.7-15.2-7.1-3.3-3.4-5-7.7-5-12.9s1.2-8.3,3.6-11.6c2.5-3.2,5.9-5.7,10.3-7.5,4.5-1.8,9.7-2.6,15.6-2.6,8.8,0,15.8,1.9,20.8,5.6,5.1,3.7,8.1,8.8,8.9,15.2Z"/>
  <path class="st1" d="M112.1,438.6v-93.1h61.6v16.2h-42v22.2h37.9v16.2h-37.9v38.5h-19.7Z"/>
  <path class="st1" d="M198.2,345.5v93.1h-19.4v-93.1h19.4Z"/>
  <path class="st1" d="M237.6,439.9c-7.1,0-13.2-1.5-18.3-4.5-5.1-3-9.1-7.2-11.9-12.6-2.8-5.4-4.2-11.7-4.2-18.9s1.4-13.5,4.2-18.9c2.8-5.4,6.7-9.6,11.9-12.6,5.2-3,11.3-4.5,18.3-4.5s13.2,1.5,18.3,4.5c5.2,3,9.1,7.2,11.9,12.6,2.8,5.4,4.2,11.7,4.2,18.9s-1.4,13.4-4.2,18.9c-2.8,5.4-6.8,9.6-11.9,12.6-5.1,3-11.2,4.5-18.3,4.5ZM237.7,424.9c3.2,0,5.9-.9,8-2.7,2.2-1.8,3.8-4.4,4.9-7.5,1.1-3.2,1.7-6.8,1.7-10.9s-.6-7.7-1.7-10.9c-1.1-3.2-2.7-5.7-4.9-7.5-2.2-1.8-4.8-2.8-8-2.8s-6,.9-8.2,2.8c-2.2,1.8-3.8,4.4-5,7.5-1.1,3.2-1.6,6.8-1.6,10.9s.5,7.7,1.6,10.9c1.1,3.2,2.8,5.7,5,7.5,2.2,1.8,4.9,2.7,8.2,2.7Z"/>
  <path class="st1" d="M288.9,438.6l-19-69.8h19.6l10.8,46.9h.6l11.3-46.9h19.2l11.5,46.6h.6l10.6-46.6h19.5l-19,69.8h-20.5l-12-43.9h-.9l-12,43.9h-20.5Z"/>
  <path class="st1" d="M434.4,388.7l-17.7,1.1c-.3-1.5-1-2.9-2-4.1-1-1.2-2.3-2.2-4-3-1.6-.8-3.5-1.1-5.8-1.1s-5.5.6-7.6,1.9c-2.1,1.2-3.1,2.9-3.1,5s.7,3.1,2,4.2c1.3,1.2,3.6,2.1,6.9,2.8l12.6,2.5c6.8,1.4,11.8,3.6,15.2,6.7,3.3,3.1,5,7.2,5,12.2s-1.3,8.6-4,12c-2.7,3.5-6.3,6.2-11,8.1-4.6,1.9-10,2.9-16,2.9-9.2,0-16.6-1.9-22.1-5.8-5.5-3.9-8.7-9.2-9.6-15.8l19-1c.6,2.8,2,5,4.2,6.5,2.2,1.5,5,2.2,8.5,2.2s6.1-.7,8.2-2c2.1-1.3,3.2-3,3.2-5.1,0-1.8-.8-3.2-2.2-4.3-1.5-1.2-3.7-2-6.7-2.6l-12.1-2.4c-6.8-1.4-11.9-3.7-15.2-7.1-3.3-3.4-5-7.7-5-12.9s1.2-8.3,3.6-11.6c2.5-3.2,5.9-5.7,10.3-7.5,4.5-1.8,9.7-2.6,15.6-2.6,8.8,0,15.8,1.9,20.8,5.6,5.1,3.7,8.1,8.8,8.9,15.2Z"/>
  <path class="st1" d="M112.1,554.6v-93.1h36.7c7.1,0,13.1,1.3,18,4,5,2.7,8.8,6.4,11.4,11.1,2.6,4.7,4,10.2,4,16.4s-1.3,11.6-4,16.4c-2.7,4.7-6.5,8.4-11.6,11-5,2.6-11.1,4-18.3,4h-23.4v-15.8h20.2c3.8,0,6.9-.7,9.4-2,2.5-1.3,4.3-3.2,5.5-5.5,1.2-2.4,1.9-5.1,1.9-8.1s-.6-5.8-1.9-8.1c-1.2-2.3-3.1-4.1-5.5-5.4-2.5-1.3-5.6-2-9.5-2h-13.3v77h-19.7Z"/>
  <path class="st1" d="M217.6,555.9c-7.2,0-13.4-1.5-18.5-4.4-5.2-2.9-9.1-7.1-11.9-12.5-2.8-5.4-4.2-11.8-4.2-19.1s1.4-13.5,4.2-18.9c2.8-5.4,6.7-9.7,11.8-12.7,5.1-3,11.1-4.5,17.9-4.5s8.9.7,12.9,2.2c4,1.5,7.5,3.7,10.5,6.6,3,2.9,5.3,6.6,7,11.1,1.7,4.4,2.5,9.6,2.5,15.5v5.3h-59v-12h40.7c0-2.8-.6-5.3-1.8-7.4-1.2-2.2-2.9-3.8-5-5-2.1-1.2-4.6-1.9-7.4-1.9s-5.5.7-7.8,2c-2.2,1.3-4,3.1-5.3,5.4-1.3,2.2-1.9,4.7-2,7.5v11.4c0,3.5.6,6.4,1.9,9,1.3,2.5,3.1,4.5,5.5,5.8,2.4,1.4,5.2,2,8.4,2s4.1-.3,5.9-.9,3.3-1.5,4.6-2.7c1.3-1.2,2.2-2.7,2.9-4.5l17.9,1.2c-.9,4.3-2.8,8.1-5.6,11.3-2.8,3.2-6.4,5.7-10.8,7.5-4.4,1.8-9.5,2.6-15.2,2.6Z"/>
  <path class="st1" d="M254.6,554.6v-69.8h18.8v12.2h.7c1.3-4.3,3.4-7.6,6.4-9.8,3-2.2,6.5-3.4,10.4-3.4s2,0,3.1.2c1.1.1,2.1.3,3,.5v17.2c-.9-.3-2.2-.5-3.8-.7-1.6-.2-3.1-.3-4.4-.3-2.8,0-5.4.6-7.6,1.9-2.2,1.2-4,2.9-5.3,5.1-1.3,2.2-1.9,4.7-1.9,7.5v39.5h-19.4Z"/>
  <path class="st1" d="M357.4,504.7l-17.7,1.1c-.3-1.5-1-2.9-2-4.1-1-1.2-2.3-2.2-4-3-1.6-.8-3.5-1.1-5.8-1.1s-5.5.6-7.6,1.9c-2.1,1.2-3.1,2.9-3.1,5s.7,3.1,2,4.2c1.3,1.2,3.6,2.1,6.9,2.8l12.6,2.5c6.8,1.4,11.8,3.6,15.2,6.7,3.3,3.1,5,7.2,5,12.2s-1.3,8.6-4,12c-2.7,3.5-6.3,6.2-11,8.1-4.6,1.9-10,2.9-16,2.9-9.2,0-16.6-1.9-22.1-5.8-5.5-3.9-8.7-9.2-9.6-15.8l19-1c.6,2.8,2,5,4.2,6.5,2.2,1.5,5,2.2,8.5,2.2s6.1-.7,8.2-2c2.1-1.3,3.2-3,3.2-5.1,0-1.8-.8-3.2-2.2-4.3-1.5-1.2-3.7-2-6.7-2.6l-12.1-2.4c-6.8-1.4-11.9-3.7-15.2-7.1-3.3-3.4-5-7.7-5-12.9s1.2-8.3,3.6-11.6c2.5-3.2,5.9-5.7,10.3-7.5,4.5-1.8,9.7-2.6,15.6-2.6,8.8,0,15.8,1.9,20.8,5.6,5.1,3.7,8.1,8.8,8.9,15.2Z"/>
  <path class="st1" d="M395,555.9c-7.1,0-13.2-1.5-18.3-4.5-5.1-3-9.1-7.2-11.9-12.6-2.8-5.4-4.2-11.7-4.2-18.9s1.4-13.5,4.2-18.9c2.8-5.4,6.7-9.6,11.9-12.6,5.2-3,11.3-4.5,18.3-4.5s13.2,1.5,18.3,4.5c5.2,3,9.1,7.2,11.9,12.6,2.8,5.4,4.2,11.7,4.2,18.9s-1.4,13.4-4.2,18.9c-2.8,5.4-6.8,9.6-11.9,12.6-5.1,3-11.2,4.5-18.3,4.5ZM395.1,540.9c3.2,0,5.9-.9,8-2.7,2.2-1.8,3.8-4.4,4.9-7.5,1.1-3.2,1.7-6.8,1.7-10.9s-.6-7.7-1.7-10.9c-1.1-3.2-2.7-5.7-4.9-7.5-2.2-1.8-4.8-2.8-8-2.8s-6,.9-8.2,2.8c-2.2,1.8-3.8,4.4-5,7.5-1.1,3.2-1.6,6.8-1.6,10.9s.5,7.7,1.6,10.9c1.1,3.2,2.8,5.7,5,7.5,2.2,1.8,4.9,2.7,8.2,2.7Z"/>
  <path class="st1" d="M453.7,514.2v40.4h-19.4v-69.8h18.5v12.3h.8c1.5-4.1,4.1-7.3,7.8-9.6,3.6-2.4,8-3.6,13.2-3.6s9.1,1.1,12.7,3.2c3.6,2.1,6.4,5.2,8.4,9.1,2,3.9,3,8.6,3,14v44.5h-19.4v-41c0-4.3-1.1-7.6-3.3-10-2.2-2.4-5.3-3.6-9.1-3.6s-4.9.6-6.9,1.7c-2,1.1-3.5,2.8-4.6,4.9-1.1,2.1-1.7,4.7-1.7,7.7Z"/>
  <path class="st1" d="M526.1,555.9c-4.5,0-8.4-.8-11.9-2.3-3.5-1.6-6.2-3.9-8.3-7-2-3.1-3-6.9-3-11.5s.7-7.1,2.1-9.8c1.4-2.6,3.4-4.8,5.8-6.4,2.5-1.6,5.2-2.8,8.4-3.6,3.2-.8,6.5-1.4,9.9-1.7,4.1-.4,7.3-.8,9.8-1.2,2.5-.4,4.3-1,5.4-1.7,1.1-.8,1.7-1.9,1.7-3.4v-.3c0-2.9-.9-5.1-2.7-6.7-1.8-1.6-4.3-2.4-7.6-2.4s-6.3.8-8.3,2.3c-2.1,1.5-3.4,3.4-4.1,5.7l-17.9-1.5c.9-4.2,2.7-7.9,5.4-11,2.7-3.1,6.1-5.5,10.3-7.2,4.2-1.7,9.2-2.5,14.7-2.5s7.6.5,11.1,1.4c3.6.9,6.7,2.3,9.5,4.2,2.8,1.9,5,4.4,6.6,7.4,1.6,3,2.4,6.5,2.4,10.7v47.1h-18.4v-9.7h-.5c-1.1,2.2-2.6,4.1-4.5,5.8-1.9,1.6-4.1,2.9-6.8,3.9-2.6.9-5.7,1.4-9.1,1.4ZM531.7,542.5c2.8,0,5.4-.6,7.5-1.7,2.2-1.2,3.9-2.7,5.1-4.6,1.2-1.9,1.9-4.1,1.9-6.6v-7.4c-.6.4-1.4.8-2.5,1.1-1,.3-2.2.6-3.5.9-1.3.2-2.6.5-3.9.7-1.3.2-2.5.3-3.5.5-2.3.3-4.3.9-6,1.6-1.7.7-3,1.7-4,3-.9,1.2-1.4,2.7-1.4,4.5,0,2.6,1,4.7,2.9,6,1.9,1.4,4.4,2,7.4,2Z"/>
  <path class="st1" d="M630.9,504.7l-17.7,1.1c-.3-1.5-1-2.9-2-4.1-1-1.2-2.3-2.2-4-3-1.6-.8-3.5-1.1-5.8-1.1s-5.5.6-7.6,1.9c-2.1,1.2-3.1,2.9-3.1,5s.7,3.1,2,4.2c1.3,1.2,3.6,2.1,6.9,2.8l12.6,2.5c6.8,1.4,11.8,3.6,15.2,6.7,3.3,3.1,5,7.2,5,12.2s-1.3,8.6-4,12c-2.7,3.5-6.3,6.2-11,8.1-4.6,1.9-10,2.9-16,2.9-9.2,0-16.6-1.9-22.1-5.8-5.5-3.9-8.7-9.2-9.6-15.8l19-1c.6,2.8,2,5,4.2,6.5,2.2,1.5,5,2.2,8.5,2.2s6.1-.7,8.2-2c2.1-1.3,3.2-3,3.2-5.1,0-1.8-.8-3.2-2.2-4.3-1.5-1.2-3.7-2-6.7-2.6l-12.1-2.4c-6.8-1.4-11.9-3.7-15.2-7.1-3.3-3.4-5-7.7-5-12.9s1.2-8.3,3.6-11.6c2.5-3.2,5.9-5.7,10.3-7.5,4.5-1.8,9.7-2.6,15.6-2.6,8.8,0,15.8,1.9,20.8,5.6,5.1,3.7,8.1,8.8,8.9,15.2Z"/>
  <path class="st2" d="M491,439.9c-6.4,0-12-1.2-16.6-3.5-4.7-2.3-8.3-5.4-10.8-9.4-2.5-4-3.7-8.4-3.7-13.3s.7-6.9,2.2-9.7c1.5-2.8,3.5-5.4,6.1-7.8,2.6-2.4,5.6-4.8,9.1-7.1l18-11.9c2.3-1.5,4-3,5.1-4.7,1.1-1.7,1.6-3.5,1.6-5.4s-.7-3.6-2.2-5.1c-1.5-1.6-3.6-2.3-6.3-2.3-1.8,0-3.4.4-4.7,1.2-1.3.8-2.4,1.8-3.1,3.1-.7,1.3-1.1,2.7-1.1,4.3s.5,3.9,1.6,5.9,2.5,4.1,4.4,6.4c1.8,2.2,3.8,4.6,6,7.2l44.1,50.6h-20.2l-36.8-41c-2.4-2.8-4.8-5.6-7.3-8.6-2.4-3-4.4-6.2-6-9.6-1.6-3.4-2.4-7.1-2.4-11.1s1-8.6,3.1-12.2c2.1-3.6,5.1-6.5,8.9-8.5,3.8-2.1,8.3-3.2,13.4-3.2s9.3,1,12.9,3c3.6,2,6.4,4.7,8.4,8,2,3.3,3,6.9,3,10.9s-1.1,8.4-3.3,12c-2.2,3.5-5.2,6.7-9.1,9.5l-19,13.7c-2.6,1.9-4.5,3.8-5.7,5.8-1.2,1.9-1.8,3.8-1.8,5.6s.5,4.2,1.6,6c1.1,1.8,2.6,3.2,4.6,4.2,2,1,4.3,1.5,7,1.5s6.5-.7,9.7-2.2c3.2-1.5,6.1-3.7,8.7-6.4,2.6-2.8,4.7-6.1,6.3-9.9,1.6-3.8,2.4-8,2.4-12.7h16c0,5.7-.6,10.8-1.9,15.4-1.2,4.5-3,8.5-5.2,11.9-2.2,3.4-4.7,6.1-7.6,8.3-.9.6-1.8,1.1-2.6,1.6-.8.5-1.7,1.1-2.6,1.6-3.5,2.8-7.3,4.8-11.6,6-4.2,1.2-8.4,1.9-12.6,1.9Z"/>
  <path class="st3" d="M599.7,323.9c-6.4,0-12-1.2-16.6-3.5s-8.3-5.4-10.8-9.4c-2.5-4-3.7-8.4-3.7-13.3s.7-6.9,2.2-9.7c1.5-2.8,3.5-5.4,6.1-7.8,2.6-2.4,5.6-4.8,9.1-7.1l18-11.9c2.3-1.5,4-3,5.1-4.7,1.1-1.7,1.6-3.5,1.6-5.4s-.7-3.6-2.2-5.1c-1.5-1.6-3.6-2.3-6.3-2.3-1.8,0-3.4.4-4.7,1.2-1.3.8-2.4,1.8-3.1,3.1-.7,1.3-1.1,2.7-1.1,4.3s.5,3.9,1.6,5.9,2.5,4.1,4.4,6.4c1.8,2.2,3.8,4.6,6,7.2l44.1,50.6h-20.2l-36.8-41c-2.4-2.8-4.8-5.6-7.3-8.6-2.4-3-4.4-6.2-6-9.6-1.6-3.4-2.4-7.1-2.4-11.1s1-8.6,3.1-12.2c2.1-3.6,5.1-6.5,8.9-8.5,3.8-2.1,8.3-3.2,13.4-3.2s9.3,1,12.9,3c3.6,2,6.4,4.7,8.4,8,2,3.3,3,6.9,3,10.9s-1.1,8.4-3.3,12c-2.2,3.5-5.2,6.7-9.1,9.5l-19,13.7c-2.6,1.9-4.5,3.8-5.7,5.8-1.2,1.9-1.8,3.8-1.8,5.6s.5,4.2,1.6,6c1.1,1.8,2.6,3.2,4.6,4.2,2,1,4.3,1.5,7,1.5s6.5-.7,9.7-2.2c3.2-1.5,6.1-3.7,8.7-6.4,2.6-2.8,4.7-6.1,6.3-9.9s2.4-8,2.4-12.7h16c0,5.7-.6,10.8-1.9,15.4-1.2,4.5-3,8.5-5.2,11.9-2.2,3.4-4.7,6.1-7.6,8.3-.9.6-1.8,1.1-2.6,1.6-.8.5-1.7,1.1-2.6,1.6-3.5,2.8-7.3,4.8-11.6,6-4.2,1.2-8.4,1.9-12.6,1.9Z"/>
  <path class="st0" d="M488.1,207.9c-6.4,0-12-1.2-16.6-3.5-4.7-2.3-8.3-5.4-10.8-9.4-2.5-4-3.7-8.4-3.7-13.3s.7-6.9,2.2-9.7c1.5-2.8,3.5-5.4,6.1-7.8,2.6-2.4,5.6-4.8,9.1-7.1l18-11.9c2.3-1.5,4-3,5.1-4.7,1.1-1.7,1.6-3.5,1.6-5.4s-.7-3.6-2.2-5.1c-1.5-1.6-3.6-2.3-6.3-2.3-1.8,0-3.4.4-4.7,1.2-1.3.8-2.4,1.8-3.1,3.1-.7,1.3-1.1,2.7-1.1,4.3s.5,3.9,1.6,5.9,2.5,4.1,4.4,6.4c1.8,2.2,3.8,4.6,6,7.2l44.1,50.6h-20.2l-36.8-41c-2.4-2.8-4.8-5.6-7.3-8.6-2.4-3-4.4-6.2-6-9.6-1.6-3.4-2.4-7.1-2.4-11.1s1-8.6,3.1-12.2c2.1-3.6,5.1-6.5,8.9-8.5,3.8-2.1,8.3-3.2,13.4-3.2s9.3,1,12.9,3c3.6,2,6.4,4.7,8.4,8,2,3.3,3,6.9,3,10.9s-1.1,8.4-3.3,12c-2.2,3.5-5.2,6.7-9.1,9.5l-19,13.7c-2.6,1.9-4.5,3.8-5.7,5.8-1.2,1.9-1.8,3.8-1.8,5.6s.5,4.2,1.6,6c1.1,1.8,2.6,3.2,4.6,4.2,2,1,4.3,1.5,7,1.5s6.5-.7,9.7-2.2c3.2-1.5,6.1-3.7,8.7-6.4,2.6-2.8,4.7-6.1,6.3-9.9s2.4-8,2.4-12.7h16c0,5.7-.6,10.8-1.9,15.4-1.2,4.5-3,8.5-5.2,11.9-2.2,3.4-4.7,6.1-7.6,8.3-.9.6-1.8,1.1-2.6,1.6-.8.5-1.7,1.1-2.6,1.6-3.5,2.8-7.3,4.8-11.6,6-4.2,1.2-8.4,1.9-12.6,1.9Z"/>
  <rect class="st1" x="638.2" y="534.9" width="21" height="21"/>
</svg>